HIERARCHY
ROOT Hips
{
  OFFSET 179.561 108.161 -168.072
  CHANNELS 6 Xposition Yposition Zposition Zrotation Xrotation Yrotation
  JOINT ToSpine
  {
    OFFSET -2.69724 7.43032 -0.144315
    CHANNELS 3 Zrotation Xrotation Yrotation
    JOINT Spine
    {
      OFFSET -0.0310711 10.7595 1.96963
      CHANNELS 3 Zrotation Xrotation Yrotation
      JOINT Spine1
      {
        OFFSET 19.9056 3.91189 0.764692
        CHANNELS 3 Zrotation Xrotation Yrotation
        JOINT Neck
        {
          OFFSET 25.9749 7.03908 -0.130764
          CHANNELS 3 Zrotation Xrotation Yrotation
          JOINT Head
          {
            OFFSET 9.52751 0.295786 -0.907742
            CHANNELS 3 Zrotation Xrotation Yrotation
            End Site
            {
              OFFSET 16.4037 0.713936 2.7358
            }
          }
        }
        JOINT LeftShoulder
        {
          OFFSET 17.7449 4.33886 11.7777
          CHANNELS 3 Zrotation Xrotation Yrotation
          JOINT LeftArm
          {
            OFFSET 0.911315 1.27913 9.80584
            CHANNELS 3 Zrotation Xrotation Yrotation
            JOINT LeftForeArm
            {
              OFFSET 28.6126 1.18197 -3.53199
              CHANNELS 3 Zrotation Xrotation Yrotation
              JOINT LeftHand
              {
                OFFSET 27.5088 0.0218783 0.327423
                CHANNELS 3 Zrotation Xrotation Yrotation
                End Site
                {
                  OFFSET 18.6038 -0.000155887 0.382096
                }
              }
            }
          }
        }
        JOINT RightShoulder
        {
          OFFSET 17.1009 2.89543 -12.2328
          CHANNELS 3 Zrotation Xrotation Yrotation
          JOINT RightArm
          {
            OFFSET 1.4228 0.178766 -10.211
            CHANNELS 3 Zrotation Xrotation Yrotation
            JOINT RightForeArm
            {
              OFFSET 28.733 1.87905 2.64907
              CHANNELS 3 Zrotation Xrotation Yrotation
              JOINT RightHand
              {
                OFFSET 27.4588 0.290562 -0.101845
                CHANNELS 3 Zrotation Xrotation Yrotation
                End Site
                {
                  OFFSET 17.8396 -0.255518 -0.000602873
                }
              }
            }
          }
        }
      }
    }
  }
  JOINT LeftUpLeg
  {
    OFFSET -5.61296 -2.22332 -10.2353
    CHANNELS 3 Zrotation Xrotation Yrotation
    JOINT LeftLeg
    {
      OFFSET 2.56703 -44.7417 -7.93097
      CHANNELS 3 Zrotation Xrotation Yrotation
      JOINT LeftFoot
      {
        OFFSET 3.16933 -46.5642 -3.96578
        CHANNELS 3 Zrotation Xrotation Yrotation
        JOINT LeftToeBase
        {
          OFFSET 0.346054 -6.02161 12.8035
          CHANNELS 3 Zrotation Xrotation Yrotation
          End Site
          {
            OFFSET 0.134235 -1.35082 5.13018
          }
        }
      }
    }
  }
  JOINT RightUpLeg
  {
    OFFSET -5.7928 -1.72406 10.6446
    CHANNELS 3 Zrotation Xrotation Yrotation
    JOINT RightLeg
    {
      OFFSET -2.57161 -44.7178 -7.85259
      CHANNELS 3 Zrotation Xrotation Yrotation
      JOINT RightFoot
      {
        OFFSET -3.10148 -46.5936 -4.03391
        CHANNELS 3 Zrotation Xrotation Yrotation
        JOINT RightToeBase
        {
          OFFSET -0.0828122 -6.13587 12.8035
          CHANNELS 3 Zrotation Xrotation Yrotation
          End Site
          {
            OFFSET -0.131328 -1.35082 5.13018
          }
        }
      }
    }
  }
}
MOTION
Frames:	19
Frame Time:	0.0333333
169.415 106.941 -162.94 -61.6418 -41.3426 -157.55 -70.1915 0 88.8779 103.873 71.2006 -16.6062 -4.71597 19.2079 8.59171 -148.313 18.9691 172.725 -151.517 56.4871 169.529 2.7398 0.521503 -27.5479 -68.037 48.9882 -115.886 6.44562 33.4418 -17.2381 9.99828 -0.296762 -1.66549 0.451064 -1.88145 28.4574 -101.769 -50.1391 73.7872 -1.37925 -32.7431 2.06136 6.42437 -0.350464 -7.28124 -59.6584 1.85947 98.76 3.17016 20.2738 -19.9489 7.16825 5.66541 -0.920114 -6.61001 -25.5923 13.0507 -59.0498 6.62078 81.6443 2.07255 20.6689 1.99547 -6.08333 -7.46898 1.04629 4.39568 7.10628 -15.5835 
170.272 107.521 -163.513 -60.2414 -42.4927 -157.378 -70.1915 0 88.8779 100.25 70.9314 -14.6661 -6.57111 18.5462 8.93141 -146.929 18.4907 170.562 -147.294 54.9614 164.273 2.71497 0.793037 -26.8622 -67.5066 49.3317 -117.925 7.76337 35.7293 -17.961 8.55601 -0.112821 0.148142 0.561431 -2.64445 28.1394 -105.613 -50.173 68.8968 -1.10475 -32.635 1.04258 7.52582 -0.557873 -9.6018 -60.8362 1.92689 100.369 0.93884 15.9686 -21.8094 5.99619 3.06497 -0.773959 -5.07801 -15.8645 11.6391 -58.3187 5.10481 81.3691 2.33407 19.7171 0.570797 -6.44584 -7.09863 1.06119 3.89999 8.88957 -15.244 
171.228 107.655 -163.853 -59.2724 -41.5808 -157.067 -70.1915 0 88.8779 95.8038 71.7638 -9.64327 -7.23159 19.4511 8.30011 -146.673 18.8701 170.342 -149.021 55.7648 164.843 2.63768 0.515804 -26.4904 -57.6208 45.7801 -125.893 11.6065 32.4672 -21.2959 4.80783 -0.185812 -2.62912 0.561842 -2.67613 27.9109 -109.058 -50.0912 62.8283 0.568449 -30.0915 3.24349 7.77901 -0.519753 -8.6688 -59.8603 1.89122 100.467 0.0227497 14.993 -21.3129 6.25319 4.36877 -0.788575 -5.10561 -16.419 11.0043 -56.5583 4.75826 81.5594 2.18946 19.9775 0.828358 -6.27118 -7.77842 1.06226 3.3459 11.521 -15.161 
172.298 107.674 -164.149 -60.7424 -42.5834 -157.301 -70.1915 0 88.8779 99.6337 71.4284 -12.0818 -6.99225 19.7784 7.00534 -147.558 19.332 170.6 -148.808 56.1976 164.966 2.63889 0.320904 -26.809 -52.7948 42.5322 -129.651 13.7192 27.79 -23.7977 2.26637 -0.137402 -4.75424 0.50109 -2.27294 27.8292 -110.585 -50.2196 59.5529 1.46017 -26.4749 5.44501 6.56925 -0.389601 -7.86363 -59.0913 0.798371 98.5393 2.02437 17.536 -20.537 6.68819 6.31306 -0.830087 -5.7272 -20.2586 11.1162 -57.7612 4.64743 81.0175 2.53631 19.5549 0.434313 -5.74123 -7.91493 1.03649 2.5247 12.9009 -13.967 
173.008 107.683 -164.502 -63.5034 -43.2545 -158.698 -70.1915 0 88.8779 103.439 71.4823 -15.0995 -5.65047 20.4466 5.9994 -148.539 19.6162 171.077 -149.804 56.7769 166.607 2.56941 -0.200023 -26.907 -53.5394 41.9838 -129.673 16.2031 28.5022 -27.0638 1.46698 -0.0666445 -3.13131 0.523832 -2.36951 28.3572 -109.175 -50.3293 60.5465 1.30549 -24.7567 6.39513 4.36154 -0.209863 -6.80323 -60.0881 1.20124 98.7666 2.35388 19.0073 -21.1596 6.98873 6.38345 -0.881662 -5.83625 -20.9971 10.8888 -60.0503 5.0999 80.8215 2.38385 18.6168 0.387649 -5.81584 -7.69158 1.03574 2.12769 13.616 -13.43 
173.764 107.727 -164.774 -65.2057 -42.3189 -160.035 -70.1915 0 88.8779 102.013 72.3247 -13.0915 -3.80922 21.4979 5.01561 -148.29 19.6077 170.431 -148.241 56.4819 165.59 2.31955 -1.24989 -25.7677 -54.9248 44.107 -129.495 18.1159 30.9836 -28.4471 4.11888 -0.144362 -2.23754 0.515138 -2.25196 28.9576 -107.83 -50.468 62.3851 1.78029 -25.9863 7.59119 2.78693 -0.107769 -6.09433 -60.4653 1.40247 99.1481 2.14569 19.5117 -20.1597 7.45386 6.89442 -0.959214 -5.94493 -21.693 10.7345 -60.5978 5.11543 80.73 2.40078 18.405 1.48668 -5.86415 -7.59973 1.0365 2.07742 14.8727 -13.8668 
174.536 107.843 -164.986 -66.0913 -40.4975 -161.219 -70.1915 0 88.8779 102.347 72.4448 -13.4284 -5.27152 21.261 6.26896 -147.555 19.4877 173.419 -150.487 56.6156 167.33 2.68869 -0.157228 -28.1622 -55.1996 43.2237 -126.201 17.6753 29.2411 -29.0271 5.36751 -0.0923922 -0.325231 0.369175 -1.37284 27.8594 -104.723 -51.19 65.4213 1.91356 -28.6933 8.40783 2.69333 -0.0983781 -5.83441 -60.5507 0.965114 99.0559 2.12851 19.0951 -18.4354 6.65376 7.15611 -0.81211 -5.94046 -21.4311 11.6624 -60.281 4.82899 80.7298 2.35845 18.1899 2.66803 -6.25305 -7.63233 1.05876 1.20498 16.6023 -12.8014 
175.19 107.907 -165.126 -67.4208 -39.2385 -162.551 -70.1915 0 88.8779 101.743 72.68 -12.8701 -5.04221 21.4403 6.36765 -147.496 18.7898 173.386 -150.132 55.6072 165.571 2.82885 1.0632 -27.5901 -53.2945 43.8748 -127.713 15.8633 28.8223 -26.2202 8.83573 -0.291283 -2.02885 0.467121 -2.12958 26.9096 -103.171 -52.3198 68.962 2.49028 -30.8982 9.29742 2.71101 -0.0825689 -4.92103 -61.5118 0.749296 99.3329 1.89185 18.2091 -17.0635 6.89595 7.19882 -0.855538 -5.92432 -21.2488 11.949 -60.4492 4.24357 80.2777 2.62052 18.4986 3.96525 -6.67748 -8.17523 1.08964 -0.0793554 18.48 -11.0403 
175.732 107.889 -165.362 -68.2212 -38.7633 -163.322 -70.1915 0 88.8779 100.575 72.4708 -12.1257 -5.0269 20.9827 6.83081 -147.054 18.4757 173.623 -149.573 55.1296 165.352 2.86516 0.962896 -28.1111 -53.6269 44.7597 -125.669 13.3025 26.9261 -23.6181 10.803 -0.414814 -2.62934 0.538119 -2.67205 26.6863 -100.756 -53.1436 72.7649 3.39437 -31.8701 11.0666 3.48543 -0.125767 -5.41476 -61.5875 0.4898 99.285 1.98705 18.5341 -16.2972 7.03214 7.50649 -0.87692 -5.98864 -21.6851 11.8659 -60.3168 3.89785 80.0993 2.67395 19.0461 4.71045 -6.62946 -7.98785 1.08459 -0.30451 17.9049 -10.3439 
176.196 107.918 -165.707 -68.5465 -38.9833 -163.108 -70.1915 0 88.8779 100.383 71.677 -11.8845 -5.43032 20.0716 6.97881 -146.587 18.2325 173.396 -150.039 55.0286 165.895 2.88995 1.10312 -28.1323 -57.5441 46.8472 -121.816 13.1149 32.1266 -22.4615 6.64616 -0.148963 -0.877069 0.508858 -2.35753 27.5402 -96.0271 -53.5705 77.0908 4.75445 -28.644 14.1859 4.18042 -0.156466 -5.41477 -61.0693 0.869041 99.2859 2.12899 19.401 -16.808 6.59615 6.81895 -0.80661 -5.87955 -20.9466 11.9907 -60.5234 4.35536 80.2977 2.70954 18.541 4.35375 -6.63346 -7.92045 1.08387 -0.225032 18.9666 -10.9648 
176.464 107.967 -165.873 -70.0746 -37.5158 -164.819 -70.1915 0 88.8779 100.233 72.2935 -11.9801 -5.04653 20.7754 6.78276 -146.538 17.6845 172.695 -149.197 54.2751 165.109 2.79319 0.746743 -27.733 -73.3689 51.2703 -110.567 7.9933 44.1783 -17.4387 5.74472 -0.278598 -3.70341 0.542728 -2.55664 27.8281 -90.1708 -54.7734 82.3676 5.491 -23.0492 16.7005 6.23373 -0.260581 -5.6866 -62.5984 0.931089 100.154 1.50895 18.1999 -15.7733 6.93771 7.38578 -0.860926 -5.90794 -21.2012 11.7463 -60.765 4.26084 80.4739 2.21929 19.1769 6.15431 -6.43728 -7.65419 1.06933 -0.231639 18.6869 -10.8312 
176.873 108.028 -166.053 -70.597 -37.4467 -165.159 -70.1915 0 88.8779 99.7098 72.1996 -11.3897 -4.87108 20.5599 6.98635 -146.724 17.87 172.689 -147.768 54.0989 164.03 2.84648 0.85047 -28.1059 -88.973 52.9428 -99.7504 -0.0168185 55.3878 -7.53038 6.24901 -0.209048 -2.07891 0.500754 -2.28447 27.6978 -85.1067 -55.5149 86.5395 5.06455 -14.952 18.6499 7.34883 -0.101098 -2.0895 -62.9007 1.01034 100.436 1.30972 18.0148 -16.0226 6.90443 7.02184 -0.859214 -5.90341 -21.0434 12.1858 -61.0701 4.09487 80.297 2.36193 18.8798 6.46836 -6.57897 -7.43636 1.07404 -0.414321 18.979 -10.6012 
177.186 108.051 -166.259 -71.1622 -36.7824 -165.677 -70.1915 0 88.8779 99.2248 72.5616 -10.8878 -4.77909 20.7783 7.34832 -147.096 18.0703 173.158 -149.4 54.6391 164.819 2.93463 1.09828 -28.5813 -95.1246 53.7689 -96.6365 -10.1875 58.8372 6.33468 3.77234 -0.165461 -3.16032 0.484871 -2.19011 27.5513 -82.0141 -56.0102 89.2181 4.88198 -9.15907 20.6069 4.909 0.0253284 0.304248 -63.3856 1.17642 100.852 1.0121 17.5057 -15.8202 6.88494 7.08839 -0.854887 -6.00212 -21.5608 12.6698 -61.143 4.11267 80.3602 2.31934 18.8196 7.08419 -6.6847 -7.07838 1.07529 -0.730851 19.0075 -9.99785 
177.619 108.062 -166.377 -71.4069 -37.0019 -166.002 -70.1915 0 88.8779 99.5009 72.327 -11.0704 -5.14187 20.7401 6.89818 -146.576 18.1048 172.053 -147.899 54.4428 163.959 2.96423 1.36077 -28.4474 -102.545 54.4939 -92.3933 -15.9599 60.9772 15.3892 3.70401 -0.246311 -5.53231 0.514473 -2.32358 28.2056 -78.26 -56.2481 92.4642 2.66528 -0.185631 22.8462 5.06332 0.0612665 1.20859 -63.4278 0.502829 100.265 1.27849 17.3183 -15.1682 6.91931 7.42617 -0.857071 -6.10299 -22.227 12.7239 -60.8685 3.3669 79.7677 2.66946 19.5276 7.44414 -6.35576 -7.69139 1.06542 -1.21326 20.4535 -9.70361 
177.802 108.061 -166.561 -71.7681 -37.1354 -166.265 -70.1915 0 88.8779 98.3281 72.4715 -10.0601 -4.72047 20.7461 7.16289 -146.565 18.344 172.264 -146.108 54.4757 164.605 3.03932 1.45163 -29.0232 -109.11 54.8565 -88.5856 -13.4299 61.0492 15.4357 2.58936 -0.0217015 0.497547 0.515699 -2.36711 27.8776 -81.1344 -56.6085 90.6292 3.63156 -1.63029 24.1156 2.85022 0.0217924 0.737612 -63.4579 0.404479 100.151 1.37318 17.5252 -14.917 7.2998 8.0073 -0.921923 -6.20052 -22.9684 12.2534 -60.8796 3.42736 79.8343 2.4741 19.8339 7.42703 -6.24634 -7.97744 1.06435 -1.17585 20.989 -10.0051 
177.94 108.079 -166.732 -72.1759 -37.2917 -166.382 -70.1915 0 88.8779 98.7404 72.5722 -10.3128 -4.70647 20.8631 7.20452 -147.052 18.8618 172.469 -146.147 55.1086 165.177 3.04421 1.41399 -29.1312 -115.218 55.0087 -84.0946 -11.3732 61.9181 15.8464 2.58904 0.016469 1.99564 0.528763 -2.52819 27.2723 -81.3239 -57.4442 90.9378 2.99742 -0.194131 24.928 4.26805 0.00738519 -0.143024 -63.4418 0.661188 100.305 1.34749 18.0098 -15.1349 7.13279 7.81718 -0.892337 -6.18294 -22.8688 12.1734 -61.3858 3.57089 79.7745 2.49724 19.3666 7.55255 -5.97973 -7.72643 1.04544 -1.2978 20.9385 -9.7529 
177.951 108.072 -166.79 -72.7831 -37.4688 -166.656 -70.1915 0 88.8779 97.8906 72.5851 -9.32592 -3.74165 20.9922 6.69102 -147.73 18.9362 171.956 -145.211 55.0704 165.11 2.98145 1.33233 -28.6592 -118.927 55.2111 -80.614 -9.30673 60.6045 15.1902 3.05792 0.0350662 2.5867 0.541942 -2.55645 27.7857 -79.2964 -57.2675 93.4861 2.22524 1.44569 25.0054 4.35563 0.0761729 1.96415 -63.935 0.826058 100.517 1.34354 18.0397 -15.5697 7.42186 7.91481 -0.945661 -6.15201 -22.6565 12.2343 -62.0921 3.61794 79.6451 2.54237 19.044 7.58695 -6.11096 -7.68879 1.05192 -1.47953 21.1095 -9.48366 
178.03 108.073 -166.849 -72.978 -37.485 -166.985 -70.1915 0 88.8779 97.4808 72.7479 -9.09645 -3.72 21.1149 6.7995 -148.349 19.2434 172.218 -145.399 55.3977 165.053 2.98908 1.41088 -28.607 -121.342 55.1409 -77.6759 -7.73984 58.9012 14.4398 3.45407 0.0523076 3.01809 0.502172 -2.31827 27.4751 -75.8507 -57.1141 97.1451 2.8454 -0.0405944 23.6917 5.8357 0.0801269 1.39024 -64.1634 0.505606 100.354 1.40614 17.7782 -15.2461 7.18507 7.91327 -0.901187 -5.98376 -21.5578 12.232 -62.123 3.21192 79.38 2.69795 19.2504 7.91655 -6.35598 -7.75086 1.06641 -1.73052 20.7317 -8.84498 
178.129 108.098 -166.908 -73.0649 -37.8911 -166.926 -70.1915 0 88.8779 97.2502 72.7866 -8.61999 -3.52491 21.3059 6.30939 -148.911 19.0942 171.901 -145.63 55.2299 164.664 2.83699 1.35628 -27.2237 -122.8 56.3137 -74.8878 -6.52304 55.6845 13.2678 3.18781 0.00963026 1.7264 0.525673 -2.43902 27.8409 -74.0015 -56.3253 99.6398 5.11151 -7.48639 21.8731 7.48706 -0.115344 -2.29216 -64.326 0.34512 100.139 1.61264 17.5259 -15.3322 6.97423 7.74444 -0.863511 -5.82677 -20.5878 12.0387 -62.472 3.08886 79.1949 2.9265 18.8217 7.78186 -6.38667 -7.55953 1.06501 -1.81455 21.1687 -8.87923 
